<?xml version="1.0" encoding="UTF-8"?>
<!DOCTYPE svg PUBLIC "-//W3C//DTD SVG 1.1//EN" "http://www.w3.org/Graphics/SVG/1.1/DTD/svg11.dtd">
<!-- Creator: CorelDRAW X7 -->
<svg xmlns="http://www.w3.org/2000/svg" xml:space="preserve" width="21cm" height="25.2cm" version="1.1" style="shape-rendering:geometricPrecision; text-rendering:geometricPrecision; image-rendering:optimizeQuality; fill-rule:evenodd; clip-rule:evenodd"
viewBox="0 0 1074 1289"
 xmlns:xlink="http://www.w3.org/1999/xlink">
 <defs>
  <style type="text/css">
   <![CDATA[
    .fil0 {fill:#339966}
    .fil1 {fill:#616263}
   ]]>
  </style>
 </defs>
 <g id="Layer_x0020_1">
  <metadata id="CorelCorpID_0Corel-Layer"/>
  <g id="_2227055732784">
   <polygon class="fil0" points="537,48 38,505 38,1252 371,1252 371,849 704,849 704,1252 1037,1252 1037,505 "/>
   <path class="fil1" d="M1074 1289l-403 0 0 -403 -268 0 0 403 -403 0 0 -800 537 -489 537 489 0 800zm-333 -75l258 0 0 -693 -462 -419 -462 419 0 693 258 0 0 -403 408 0 0 403z"/>
  </g>
 </g>
</svg>
