<?xml version="1.0" encoding="UTF-8"?>
<!DOCTYPE svg PUBLIC "-//W3C//DTD SVG 1.1//EN" "http://www.w3.org/Graphics/SVG/1.1/DTD/svg11.dtd">
<!-- Creator: CorelDRAW X7 -->
<svg xmlns="http://www.w3.org/2000/svg" xml:space="preserve" width="21.1432cm" height="21.9359cm" version="1.1" style="shape-rendering:geometricPrecision; text-rendering:geometricPrecision; image-rendering:optimizeQuality; fill-rule:evenodd; clip-rule:evenodd"
viewBox="0 0 930 965"
 xmlns:xlink="http://www.w3.org/1999/xlink">
 <defs>
  <style type="text/css">
   <![CDATA[
    .fil0 {fill:#339966}
    .fil1 {fill:#616263}
   ]]>
  </style>
 </defs>
 <g id="Layer_x0020_1">
  <metadata id="CorelCorpID_0Corel-Layer"/>
  <g id="_2227170868464">
   <path id="fill" class="fil0" d="M803 535c4,-16 4,-36 4,-52 0,-16 0,-36 -4,-52l84 -77c8,-4 8,-12 4,-20 -16,-52 -44,-104 -84,-144 -4,-8 -13,-8 -21,-4l-108 36c-28,-20 -56,-40 -88,-52l-24 -113c0,-8 -9,-16 -17,-16 -56,-12 -116,-12 -172,0 -4,0 -12,8 -12,16l-24 113c-33,12 -65,28 -89,52l-108 -40c-8,-4 -16,0 -20,8 -41,40 -69,92 -89,144 0,8 0,16 8,20l89 77c-4,16 -8,36 -8,52 0,16 0,36 4,52l-85 77c-8,4 -8,12 -4,20 16,52 44,104 85,144 4,8 12,8 20,4l108 -36c28,20 56,40 89,52l24 113c0,8 8,16 16,16 28,4 56,8 84,8 28,0 56,-4 84,-8 8,0 13,-8 17,-16l20 -113c32,-12 64,-32 88,-52l108 36c8,4 17,0 21,-4 36,-44 68,-92 84,-148 4,-8 0,-16 -4,-20l-80 -73zm-338 117c-96,0 -169,-77 -169,-169 0,-92 77,-169 169,-169 92,0 169,77 169,169 0,92 -77,169 -169,169l0 0z"/>
   <path id="outline" class="fil1" d="M465 965c-28,0 -60,-4 -92,-8 -20,-4 -36,-20 -40,-40l-21 -97c-24,-12 -48,-24 -68,-40l-92 32c-20,8 -40,4 -56,-16 -41,-48 -73,-100 -93,-156 -8,-20 0,-44 16,-57l77 -60c0,-12 -4,-24 -4,-40 0,-16 0,-28 4,-40l-77 -64c-12,-8 -20,-33 -12,-57 16,-56 48,-108 93,-156 12,-16 36,-20 56,-12l88 32c20,-16 44,-28 68,-40l21 -97c4,-20 20,-36 40,-40 60,-12 124,-12 184,0 21,4 37,20 41,40l20 97c24,12 48,24 68,40l92 -32c16,-8 41,-4 57,16 40,48 72,100 92,156 8,20 0,45 -16,57l-76 60c0,12 4,24 4,40 0,16 0,28 -4,40l72 64c16,13 24,37 12,57 -16,56 -48,108 -92,156 -12,16 -37,20 -57,12l-84 -32c-20,16 -44,28 -68,40l-20 97c-4,20 -20,36 -41,40 -32,4 -64,8 -92,8zm68 -60c0,0 0,0 0,0l0 0zm-136 0l0 0c0,0 0,0 0,0zm-4 -8c52,8 92,8 144,0l25 -121 16 -8c28,-12 56,-28 80,-48l12 -12 116 40c33,-36 57,-80 73,-124l-93 -81 4 -16c4,-12 4,-28 4,-48 0,-16 0,-32 -4,-48l-4 -12 93 -81c-16,-44 -40,-84 -73,-124l-116 40 -12 -12c-24,-20 -52,-36 -80,-48l-16 -8 -25 -121c-48,-8 -96,-8 -144,0l-24 121 -16 12c-28,12 -57,28 -81,48l-12 8 -116 -40c-36,40 -61,80 -77,124l93 81 -4 16c-4,12 -4,28 -4,48 0,20 0,32 4,48l8 16 -93 81c17,44 41,84 73,124l116 -40 12 12c24,20 53,36 81,48l16 8 24 117zm152 -4c0,0 0,0 0,0 0,0 0,0 0,0zm-160 0c0,0 0,0 0,0 0,0 0,0 0,0zm397 -137c0,0 0,0 0,0 0,0 0,0 0,0zm-634 0c0,0 0,0 0,0 0,0 0,0 0,0zm-16 -4c0,4 0,4 0,0l0 0zm667 0l0 0c0,0 0,0 0,0zm68 -120c0,4 4,4 0,0l0 0zm-804 0l0 0c0,4 0,0 0,0zm800 -12c0,0 0,0 0,0 0,0 0,0 0,0zm-796 0c0,0 0,0 0,0 0,0 0,0 0,0zm796 -274c0,0 0,0 0,0 0,0 0,0 0,0zm-796 0c0,0 0,0 0,0 0,0 0,0 0,0zm800 -16c0,4 0,4 0,0l0 0zm-808 0l0 0c4,0 0,0 0,0zm73 -116c0,0 0,0 0,0l0 0zm667 -4l0 0c0,4 0,4 0,0zm-17 0c0,0 0,0 0,0 0,0 0,0 0,0zm-634 0c0,0 0,0 0,0 0,0 0,0 0,0zm397 -137c0,0 0,0 0,0 0,0 0,0 0,0zm-160 0c0,0 0,0 0,0 0,0 0,0 0,0zm148 -12c0,0 0,0 0,0l0 0zm-136 0l0 0c0,0 0,0 0,0zm68 623c-112,0 -201,-88 -201,-201 0,-112 93,-201 201,-201 113,0 201,89 201,201 0,113 -88,201 -201,201zm0 -338c-76,0 -136,61 -136,137 0,76 60,137 136,137 76,0 137,-61 137,-137 0,-76 -61,-137 -137,-137z"/>
  </g>
 </g>
</svg>
