<?xml version="1.0" encoding="UTF-8" standalone="no"?>
<svg
   xmlns:dc="http://purl.org/dc/elements/1.1/"
   xmlns:cc="http://creativecommons.org/ns#"
   xmlns:rdf="http://www.w3.org/1999/02/22-rdf-syntax-ns#"
   xmlns:svg="http://www.w3.org/2000/svg"
   xmlns="http://www.w3.org/2000/svg"
   xmlns:sodipodi="http://sodipodi.sourceforge.net/DTD/sodipodi-0.dtd"
   xmlns:inkscape="http://www.inkscape.org/namespaces/inkscape"
   width="51"
   height="51"
   viewBox="0 0 51 51"
   version="1.1"
   xml:space="preserve"
   style="clip-rule:evenodd;fill-rule:evenodd;stroke-linejoin:round;stroke-miterlimit:1.41420996"
   id="svg13"
   sodipodi:docname="icon-bitcoin.svg"
   inkscape:version="0.92.3 (2405546, 2018-03-11)"><metadata
   id="metadata17"><rdf:RDF><cc:Work
       rdf:about=""><dc:format>image/svg+xml</dc:format><dc:type
         rdf:resource="http://purl.org/dc/dcmitype/StillImage" /></cc:Work></rdf:RDF></metadata><sodipodi:namedview
   pagecolor="#ffffff"
   bordercolor="#666666"
   borderopacity="1"
   objecttolerance="10"
   gridtolerance="10"
   guidetolerance="10"
   inkscape:pageopacity="0"
   inkscape:pageshadow="2"
   inkscape:window-width="922"
   inkscape:window-height="405"
   id="namedview15"
   showgrid="false"
   inkscape:zoom="3.272102"
   inkscape:cx="45.344991"
   inkscape:cy="27.08047"
   inkscape:window-x="806"
   inkscape:window-y="181"
   inkscape:window-maximized="0"
   inkscape:current-layer="Layer_x0020_1" />
    
    
    <defs
   id="defs11">
        <linearGradient
   id="_Linear1"
   x1="0"
   y1="0"
   x2="1"
   y2="0"
   gradientUnits="userSpaceOnUse"
   gradientTransform="matrix(-17.5917,-30.4347,30.4347,-17.5917,30.8557,34.8191)"><stop
     offset="0"
     style="stop-color:rgb(255,162,75);stop-opacity:1"
     id="stop6" /><stop
     offset="1"
     style="stop-color:rgb(247,137,28);stop-opacity:1"
     id="stop8" /></linearGradient>
    </defs>
<g
   style="clip-rule:evenodd;fill-rule:evenodd;image-rendering:optimizeQuality;shape-rendering:geometricPrecision;text-rendering:geometricPrecision"
   id="Layer_x0020_1"
   transform="matrix(0.38361566,0,0,0.38361566,-393.99277,-197.36433)"><metadata
     id="CorelCorpID_0Corel-Layer" /><g
     id="_2227055852992"
     transform="matrix(0.06425595,0,0,0.06425595,1027.0508,514.48456)"><circle
       class="fil0"
       cx="1035"
       cy="1035"
       r="812"
       id="circle7"
       style="fill:#ffb400;fill-opacity:1" /><path
       class="fil1"
       d="m 1758,1456 c -36,59 -78,112 -127,159 H 1323 1041 760 479 l 20,-44 20,-45 20,-45 20,-45 v 0 0 0 0 l 2,-5 2,-4 2,-5 2,-5 7,-15 6,-14 7,-14 6,-14 v 0 0 0 0 l 17,-38 c 32,-71 63,-142 95,-214 l 45,-101 46,-101 45,-101 h 52 53 53 53 l -38,85 -179,57 -54,120 179,-57 -25,57 -169,54 -54,120 169,-54 -74,167 -16,34 -15,34 -15,34 h 242 243 242 z M 331,613 c 36,-58 78,-112 127,-159 h 289 281 281 282 l -20,45 -20,44 -20,45 -20,45 v 0 0 0 0 l -3,5 -2,5 -2,5 -2,4 -7,15 -6,14 -6,14 -7,15 v 0 0 0 0 l -17,37 -16,38 -17,37 -17,38 -45,101 -45,101 -45,101 -45,101 h -53 -53 -53 -52 l 63,-141 187,-60 55,-120 -189,60 26,-57 178,-57 54,-119 -179,57 16,-37 18,-41 v 0 0 0 0 l 16,-34 15,-34 15,-34 15,-34 H 1066 824 581 Z"
       id="path9"
       inkscape:connector-curvature="0"
       style="fill:#ffffff" /><path
       class="fil1"
       d="m 1035,115 c 507,0 919,412 919,920 0,507 -412,919 -919,919 -508,0 -920,-412 -920,-919 0,-508 412,-920 920,-920 z m 0,107 c 448,0 812,364 812,813 0,448 -364,812 -812,812 -449,0 -813,-364 -813,-812 0,-449 364,-813 813,-813 z"
       id="path11"
       inkscape:connector-curvature="0"
       style="fill:#ffffff" /><path
       class="fil2"
       d="m 1035,0 c 571,0 1034,463 1034,1035 0,571 -463,1034 -1034,1034 C 463,2069 0,1606 0,1035 0,463 463,0 1035,0 Z m 0,120 c 505,0 914,410 914,915 0,505 -409,914 -914,914 -505,0 -915,-409 -915,-914 0,-505 410,-915 915,-915 z"
       id="path13"
       inkscape:connector-curvature="0"
       style="fill:#333333" /></g></g></svg>