<?xml version="1.0" encoding="UTF-8" standalone="no"?>
<svg
   xmlns:dc="http://purl.org/dc/elements/1.1/"
   xmlns:cc="http://creativecommons.org/ns#"
   xmlns:rdf="http://www.w3.org/1999/02/22-rdf-syntax-ns#"
   xmlns:svg="http://www.w3.org/2000/svg"
   xmlns="http://www.w3.org/2000/svg"
   xmlns:sodipodi="http://sodipodi.sourceforge.net/DTD/sodipodi-0.dtd"
   xmlns:inkscape="http://www.inkscape.org/namespaces/inkscape"
   width="16.006092"
   height="16.006092"
   viewBox="0 0 16.006092 16.006092"
   version="1.1"
   id="svg13"
   sodipodi:docname="icon-bitcoin-small.svg"
   inkscape:version="0.92.3 (2405546, 2018-03-11)">
  <metadata
     id="metadata17">
    <rdf:RDF>
      <cc:Work
         rdf:about="">
        <dc:format>image/svg+xml</dc:format>
        <dc:type
           rdf:resource="http://purl.org/dc/dcmitype/StillImage" />
      </cc:Work>
    </rdf:RDF>
  </metadata>
  <sodipodi:namedview
     pagecolor="#ffffff"
     bordercolor="#666666"
     borderopacity="1"
     objecttolerance="10"
     gridtolerance="10"
     guidetolerance="10"
     inkscape:pageopacity="0"
     inkscape:pageshadow="2"
     inkscape:window-width="1920"
     inkscape:window-height="1027"
     id="namedview15"
     showgrid="false"
     inkscape:zoom="29.5"
     inkscape:cx="14.526343"
     inkscape:cy="7.9660541"
     inkscape:window-x="-8"
     inkscape:window-y="-8"
     inkscape:window-maximized="1"
     inkscape:current-layer="svg13" />
  <!-- Generator: Sketch 40.1 (33804) - http://www.bohemiancoding.com/sketch -->
  <title
     id="title2">Bitcoin_Symbol</title>
  <desc
     id="desc4">Created with Sketch.</desc>
  <defs
     id="defs6" />
  <g
     transform="scale(0.01140035)"
     style="clip-rule:evenodd;opacity:0.8;fill:#4d4d4d;fill-rule:evenodd;image-rendering:optimizeQuality;shape-rendering:geometricPrecision;text-rendering:geometricPrecision"
     id="Layer_x0020_1">
    <metadata
       id="CorelCorpID_0Corel-Layer" />
    <path
       inkscape:connector-curvature="0"
       class="fil0"
       d="m 702,0 c 3,0 6,0 9,0 3,0 6,0 9,0 3,0 6,0 9,1 3,0 6,0 9,0 3,0 6,0 9,0 3,1 6,1 9,1 3,0 6,1 9,1 3,0 6,0 9,1 3,0 6,0 9,1 3,0 6,0 8,1 3,0 6,0 9,1 3,0 6,1 9,1 3,1 6,1 9,1 3,1 5,1 8,2 3,0 6,1 9,2 3,0 6,1 9,1 2,1 5,1 8,2 3,1 6,1 9,2 2,1 5,1 8,2 3,1 6,1 8,2 3,1 6,2 9,2 3,1 5,2 8,3 3,0 6,1 9,2 2,1 5,2 8,3 3,0 5,1 8,2 3,1 6,2 8,3 3,1 6,2 8,3 3,1 6,2 8,3 3,1 6,2 8,3 3,1 6,2 8,3 3,1 6,2 8,3 3,1 6,2 8,3 3,1 6,2 8,4 3,1 5,2 8,3 3,1 5,2 8,4 2,1 5,2 7,3 3,1 6,3 8,4 3,1 5,3 8,4 2,1 5,2 7,4 3,1 5,2 8,4 2,1 5,2 7,4 3,1 5,3 7,4 3,1 5,3 8,4 2,2 5,3 7,5 2,1 5,3 7,4 3,2 5,3 7,5 3,1 5,3 8,4 2,2 4,3 7,5 2,1 4,3 7,5 2,1 4,3 6,5 3,1 5,3 7,4 3,2 5,4 7,5 2,2 5,4 7,6 2,1 4,3 6,5 3,1 5,3 7,5 2,2 4,4 7,5 2,2 4,4 6,6 2,2 4,3 6,5 3,2 5,4 7,6 2,2 4,3 6,5 2,2 4,4 6,6 2,2 4,4 6,6 2,2 4,4 6,6 3,2 4,4 6,6 2,2 4,4 6,6 2,2 4,4 6,6 2,2 4,4 6,6 2,2 4,4 6,6 2,2 3,4 5,6 2,2 4,4 6,7 2,2 4,4 5,6 2,2 4,4 6,6 2,3 3,5 5,7 2,2 4,4 5,7 2,2 4,4 6,6 1,2 3,5 5,7 1,2 3,4 5,7 1,2 3,4 5,7 1,2 3,4 4,7 2,2 4,4 5,7 2,2 3,4 5,7 1,2 3,4 4,7 2,2 4,4 5,7 2,2 3,5 4,7 2,2 3,5 5,7 1,3 3,5 4,8 1,2 3,5 4,7 2,2 3,5 4,7 2,3 3,5 4,8 2,2 3,5 4,7 2,3 3,5 4,8 1,3 3,5 4,8 1,2 2,5 3,7 2,3 3,6 4,8 1,3 2,5 4,8 1,3 2,5 3,8 1,2 2,5 3,8 1,2 2,5 3,8 1,2 2,5 3,8 1,2 2,5 3,8 1,2 2,5 3,8 1,2 2,5 3,8 1,3 2,5 3,8 1,3 2,6 3,8 0,3 1,6 2,9 1,2 2,5 2,8 1,3 2,5 3,8 1,3 1,6 2,9 1,2 1,5 2,8 1,3 1,6 2,8 1,3 1,6 2,9 1,3 1,6 2,9 0,2 1,5 2,8 0,3 1,6 1,9 1,3 1,6 2,8 0,3 1,6 1,9 0,3 1,6 1,9 1,3 1,6 1,9 1,3 1,6 2,8 0,3 0,6 0,9 1,3 1,6 1,9 1,3 1,6 1,9 0,3 0,6 1,9 0,3 0,6 0,9 0,3 0,6 1,9 0,3 0,6 0,9 0,3 0,6 0,9 0,3 0,6 0,9 0,3 0,6 0,9 0,3 0,6 0,9 0,3 0,6 0,9 -1,3 -1,6 -1,9 0,3 0,6 0,9 -1,3 -1,6 -1,9 0,3 0,6 -1,9 0,3 0,6 -1,9 0,3 0,6 0,9 -1,3 -1,6 -2,8 0,3 0,6 -1,9 0,3 -1,6 -1,9 0,3 -1,6 -1,9 -1,3 -1,5 -2,8 0,3 -1,6 -1,9 -1,3 -2,6 -2,9 -1,2 -1,5 -2,8 -1,3 -1,6 -2,9 -1,2 -1,5 -2,8 -1,3 -1,6 -2,8 -1,3 -1,6 -2,9 -1,3 -2,5 -3,8 0,3 -1,6 -2,9 -1,2 -2,5 -2,8 -1,3 -2,5 -3,8 -1,3 -2,5 -3,8 -1,3 -2,6 -3,8 -1,3 -2,6 -3,8 -1,3 -2,6 -3,8 -1,3 -2,6 -3,8 -1,3 -2,6 -3,8 -1,3 -2,6 -3,8 -1,3 -2,6 -3,8 -2,3 -3,5 -4,8 -1,3 -2,5 -3,8 -2,2 -3,5 -4,7 -1,3 -3,6 -4,8 -1,3 -2,5 -4,8 -1,2 -2,5 -4,7 -1,3 -2,5 -4,8 -1,2 -2,5 -4,7 -1,3 -3,5 -4,7 -1,3 -3,5 -4,8 -2,2 -3,5 -5,7 -1,2 -2,5 -4,7 -1,3 -3,5 -5,7 -1,3 -3,5 -4,8 -2,2 -3,4 -5,7 -1,2 -3,4 -5,7 -1,2 -3,4 -4,6 -2,3 -4,5 -5,7 -2,3 -4,5 -5,7 -2,2 -4,5 -5,7 -2,2 -4,4 -6,6 -1,3 -3,5 -5,7 -2,2 -3,4 -5,7 -2,2 -4,4 -6,6 -1,2 -3,4 -5,6 -2,3 -4,5 -6,7 -2,2 -3,4 -5,6 -2,2 -4,4 -6,6 -2,2 -4,4 -6,6 -2,2 -4,4 -6,6 -2,2 -4,4 -6,6 -2,2 -4,4 -6,6 -2,2 -4,4 -6,6 -2,2 -4,4 -6,6 -2,2 -4,4 -6,6 -2,2 -4,3 -6,5 -2,2 -4,4 -7,6 -2,2 -4,4 -6,5 -2,2 -4,4 -6,6 -3,2 -5,3 -7,5 -2,2 -4,4 -7,5 -2,2 -4,4 -6,6 -2,1 -5,3 -7,5 -2,1 -4,3 -7,5 -2,1 -4,3 -7,5 -2,1 -4,3 -6,4 -3,2 -5,4 -7,5 -3,2 -5,3 -7,5 -3,1 -5,3 -8,4 -2,2 -4,4 -7,5 -2,2 -5,3 -7,4 -2,2 -5,3 -7,5 -3,1 -5,3 -8,4 -2,1 -4,3 -7,4 -2,2 -5,3 -7,4 -3,2 -5,3 -8,4 -2,2 -5,3 -7,4 -3,2 -5,3 -8,4 -2,1 -5,3 -8,4 -2,1 -5,2 -7,3 -3,2 -5,3 -8,4 -3,1 -5,2 -8,4 -2,1 -5,2 -8,3 -2,1 -5,2 -8,3 -2,1 -5,2 -8,3 -2,1 -5,2 -8,3 -2,1 -5,2 -8,3 -2,1 -5,2 -8,3 -2,1 -5,2 -8,3 -2,1 -5,2 -8,3 -3,1 -5,2 -8,3 -3,0 -6,1 -8,2 -3,1 -6,2 -9,2 -3,1 -5,2 -8,3 -3,1 -6,1 -9,2 -2,1 -5,1 -8,2 -3,1 -6,1 -8,2 -3,1 -6,1 -9,2 -3,1 -6,1 -8,2 -3,0 -6,1 -9,2 -3,0 -6,1 -9,1 -3,1 -5,1 -8,2 -3,0 -6,1 -9,1 -3,0 -6,1 -9,1 -3,1 -6,1 -9,1 -2,1 -5,1 -8,2 -3,0 -6,0 -9,0 -3,1 -6,1 -9,1 -3,1 -6,1 -9,1 -3,0 -6,0 -9,1 -3,0 -6,0 -9,0 -3,0 -6,0 -9,1 -3,0 -6,0 -9,0 -3,0 -6,0 -9,0 -3,0 -6,0 -9,0 -3,0 -6,0 -9,0 -3,0 -6,0 -9,0 -3,0 -6,0 -9,0 -3,-1 -6,-1 -9,-1 -3,0 -6,0 -9,0 -3,-1 -6,-1 -9,-1 -3,0 -6,0 -9,-1 -3,0 -6,0 -9,-1 -3,0 -6,0 -9,0 -2,-1 -5,-1 -8,-2 -3,0 -6,0 -9,-1 -3,0 -6,-1 -9,-1 -3,0 -6,-1 -9,-1 -2,-1 -5,-1 -8,-2 -3,0 -6,-1 -9,-1 -3,-1 -6,-2 -8,-2 -3,-1 -6,-1 -9,-2 -3,-1 -6,-1 -9,-2 -2,-1 -5,-1 -8,-2 -3,-1 -6,-1 -8,-2 -3,-1 -6,-1 -9,-2 -3,-1 -5,-2 -8,-3 -3,0 -6,-1 -8,-2 -3,-1 -6,-2 -9,-2 -2,-1 -5,-2 -8,-3 -3,-1 -5,-2 -8,-3 -3,-1 -6,-2 -8,-3 -3,-1 -6,-2 -8,-3 -3,-1 -6,-2 -8,-3 -3,-1 -6,-2 -8,-3 -3,-1 -6,-2 -8,-3 -3,-1 -6,-2 -8,-3 -3,-1 -5,-2 -8,-3 -3,-2 -5,-3 -8,-4 -2,-1 -5,-2 -8,-4 -2,-1 -5,-2 -7,-3 -3,-1 -5,-3 -8,-4 -3,-1 -5,-2 -8,-4 -2,-1 -5,-2 -7,-4 -3,-1 -5,-2 -8,-4 -2,-1 -5,-2 -7,-4 -2,-1 -5,-3 -7,-4 -3,-1 -5,-3 -8,-4 -2,-2 -5,-3 -7,-5 -2,-1 -5,-2 -7,-4 -3,-1 -5,-3 -7,-5 -3,-1 -5,-3 -7,-4 -3,-2 -5,-3 -7,-5 -3,-1 -5,-3 -7,-5 -3,-1 -5,-3 -7,-4 -3,-2 -5,-4 -7,-5 -2,-2 -5,-4 -7,-5 -2,-2 -5,-4 -7,-5 -2,-2 -4,-4 -6,-6 -3,-1 -5,-3 -7,-5 -2,-2 -4,-3 -7,-5 -2,-2 -4,-4 -6,-6 -2,-1 -4,-3 -6,-5 -3,-2 -5,-4 -7,-6 -2,-2 -4,-3 -6,-5 -2,-2 -4,-4 -6,-6 -2,-2 -4,-4 -6,-6 -2,-2 -4,-4 -6,-6 -2,-2 -4,-4 -6,-6 -2,-2 -4,-4 -6,-6 -2,-2 -4,-4 -6,-6 -2,-2 -4,-4 -6,-6 -2,-2 -4,-4 -6,-6 -2,-2 -3,-4 -5,-6 -2,-2 -4,-4 -6,-7 -2,-2 -3,-4 -5,-6 -2,-2 -4,-4 -6,-6 -1,-3 -3,-5 -5,-7 -2,-2 -4,-4 -5,-7 -2,-2 -4,-4 -5,-6 -2,-2 -4,-5 -6,-7 -1,-2 -3,-4 -5,-7 -1,-2 -3,-4 -4,-7 -2,-2 -4,-4 -5,-6 -2,-3 -4,-5 -5,-7 -2,-3 -3,-5 -5,-7 -1,-3 -3,-5 -4,-8 -2,-2 -3,-4 -5,-7 -1,-2 -3,-5 -4,-7 -2,-2 -3,-5 -5,-7 -1,-3 -3,-5 -4,-8 -1,-2 -3,-4 -4,-7 -2,-2 -3,-5 -4,-7 -2,-3 -3,-5 -4,-8 -2,-2 -3,-5 -4,-7 -2,-3 -3,-5 -4,-8 -1,-2 -3,-5 -4,-8 -1,-2 -2,-5 -3,-7 -2,-3 -3,-5 -4,-8 -1,-3 -2,-5 -3,-8 -2,-2 -3,-5 -4,-8 -1,-2 -2,-5 -3,-8 -1,-2 -2,-5 -3,-8 -1,-2 -2,-5 -3,-8 -1,-2 -2,-5 -3,-8 -1,-2 -2,-5 -3,-8 -1,-2 -2,-5 -3,-8 -1,-2 -2,-5 -3,-8 -1,-3 -2,-5 -2,-8 -1,-3 -2,-6 -3,-8 -1,-3 -2,-6 -2,-9 -1,-3 -2,-5 -3,-8 0,-3 -1,-6 -2,-9 -1,-2 -1,-5 -2,-8 -1,-3 -1,-6 -2,-8 -1,-3 -1,-6 -2,-9 -1,-3 -1,-6 -2,-8 0,-3 -1,-6 -1,-9 -1,-3 -2,-6 -2,-9 -1,-3 -1,-5 -2,-8 0,-3 0,-6 -1,-9 0,-3 -1,-6 -1,-9 -1,-3 -1,-6 -1,-9 -1,-2 -1,-5 -1,-8 -1,-3 -1,-6 -1,-9 -1,-3 -1,-6 -1,-9 0,-3 -1,-6 -1,-9 0,-3 0,-6 -1,-9 0,-3 0,-6 0,-9 0,-3 0,-6 0,-9 -1,-3 -1,-6 -1,-9 0,-3 0,-6 0,-9 0,-3 0,-6 0,-9 0,-3 0,-6 0,-9 0,-3 0,-6 0,-9 0,-3 0,-6 1,-9 0,-3 0,-6 0,-9 0,-3 0,-6 0,-9 1,-3 1,-6 1,-9 0,-3 1,-6 1,-9 0,-3 0,-6 1,-9 0,-3 0,-6 1,-9 0,-2 0,-5 1,-8 0,-3 0,-6 1,-9 0,-3 1,-6 1,-9 1,-3 1,-6 1,-9 1,-2 1,-5 2,-8 0,-3 1,-6 2,-9 0,-3 1,-6 1,-8 1,-3 1,-6 2,-9 1,-3 1,-6 2,-9 1,-2 1,-5 2,-8 1,-3 1,-6 2,-8 1,-3 2,-6 2,-9 1,-3 2,-5 3,-8 0,-3 1,-6 2,-8 1,-3 2,-6 3,-9 0,-2 1,-5 2,-8 1,-3 2,-5 3,-8 1,-3 2,-6 3,-8 1,-3 2,-6 3,-8 1,-3 2,-6 3,-8 1,-3 2,-6 3,-8 1,-3 2,-6 3,-8 1,-3 2,-6 3,-8 1,-3 2,-5 4,-8 1,-3 2,-5 3,-8 1,-2 2,-5 4,-8 1,-2 2,-5 3,-7 1,-3 3,-5 4,-8 1,-3 2,-5 4,-8 1,-2 2,-5 4,-7 1,-3 2,-5 4,-8 1,-2 2,-5 4,-7 1,-2 3,-5 4,-7 1,-3 3,-5 4,-8 2,-2 3,-5 5,-7 1,-2 3,-5 4,-7 2,-3 3,-5 5,-7 1,-3 3,-5 4,-7 2,-3 3,-5 5,-7 1,-3 3,-5 5,-7 1,-3 3,-5 5,-7 1,-3 3,-5 4,-7 2,-2 4,-5 5,-7 2,-2 4,-4 6,-7 1,-2 3,-4 5,-6 1,-3 3,-5 5,-7 2,-2 4,-4 5,-7 2,-2 4,-4 6,-6 2,-2 3,-4 5,-6 2,-3 4,-5 6,-7 2,-2 3,-4 5,-6 2,-2 4,-4 6,-6 2,-2 4,-4 6,-6 2,-2 4,-4 6,-6 2,-2 4,-4 6,-6 2,-2 4,-4 6,-6 2,-2 4,-4 6,-6 2,-2 4,-4 6,-6 2,-2 4,-4 6,-6 2,-2 4,-3 6,-5 2,-2 4,-4 7,-6 2,-2 4,-3 6,-5 2,-2 4,-4 6,-6 3,-1 5,-3 7,-5 2,-2 4,-4 7,-5 2,-2 4,-4 6,-5 2,-2 5,-4 7,-6 2,-1 4,-3 7,-5 2,-1 4,-3 7,-4 2,-2 4,-4 7,-5 2,-2 4,-4 7,-5 2,-2 4,-3 7,-5 2,-1 4,-3 7,-4 2,-2 4,-3 7,-5 2,-1 5,-3 7,-4 2,-2 5,-3 7,-5 3,-1 5,-3 8,-4 2,-1 4,-3 7,-4 2,-2 5,-3 7,-4 3,-2 5,-3 8,-4 2,-2 5,-3 7,-4 3,-1 5,-3 8,-4 3,-1 5,-3 8,-4 2,-1 5,-2 7,-3 3,-2 6,-3 8,-4 3,-1 5,-2 8,-3 3,-2 5,-3 8,-4 2,-1 5,-2 8,-3 2,-1 5,-2 8,-3 2,-1 5,-2 8,-3 2,-1 5,-2 8,-3 2,-1 5,-2 8,-3 2,-1 5,-2 8,-3 3,-1 5,-2 8,-3 3,-1 6,-2 8,-2 3,-1 6,-2 9,-3 2,-1 5,-2 8,-2 3,-1 5,-2 8,-3 3,0 6,-1 9,-2 2,-1 5,-1 8,-2 3,-1 6,-1 8,-2 3,-1 6,-1 9,-2 3,-1 6,-1 9,-2 2,0 5,-1 8,-1 3,-1 6,-2 9,-2 3,-1 6,-1 8,-2 3,0 6,0 9,-1 3,0 6,-1 9,-1 3,-1 6,-1 9,-1 3,-1 5,-1 8,-1 3,-1 6,-1 9,-1 3,-1 6,-1 9,-1 3,0 6,-1 9,-1 3,0 6,0 9,-1 3,0 6,0 9,0 3,0 6,0 9,0 3,-1 6,-1 9,-1 3,0 6,0 9,0 3,0 6,0 9,0 z m 0,130 c -5,0 -10,1 -15,1 -4,0 -9,0 -14,0 -5,0 -10,1 -14,1 -5,0 -10,1 -15,1 -4,1 -9,1 -14,2 -5,1 -9,1 -14,2 -5,1 -9,1 -14,2 -4,1 -9,2 -14,3 -4,1 -9,2 -13,3 -5,1 -10,2 -14,3 -5,1 -9,2 -13,4 -5,1 -9,2 -14,4 -4,1 -9,2 -13,4 -4,1 -9,3 -13,4 -4,2 -9,3 -13,5 -4,2 -9,3 -13,5 -4,2 -8,4 -12,6 -5,2 -9,3 -13,5 -4,2 -8,4 -12,6 -4,2 -8,5 -12,7 -4,2 -8,4 -12,6 -4,3 -8,5 -12,7 -4,2 -8,5 -11,7 -4,3 -8,5 -12,8 -4,2 -7,5 -11,7 -4,3 -8,6 -11,8 -4,3 -7,6 -11,8 -4,3 -7,6 -11,9 -3,3 -7,6 -10,8 -3,3 -7,6 -10,9 -4,3 -7,6 -10,9 -3,4 -7,7 -10,10 h 25 24 25 25 25 24 25 25 24 25 25 25 24 25 25 24 25 25 25 24 25 25 24 25 25 25 24 25 25 24 25 25 l -2,4 -2,4 -1,4 -2,4 -2,3 -2,4 -2,4 -1,4 -2,4 -2,4 -2,4 -1,4 -2,4 -2,4 -2,4 -1,4 -2,4 -2,4 -2,4 -1,3 -2,4 -2,4 -2,4 -1,4 -2,4 -2,4 -2,4 -1,4 -2,4 -2,4 -2,4 -1,4 v 0 0 0 0 0 0 0 0 0 0 0 0 0 0 0 0 0 0 0 0 0 0 0 0 0 0 0 0 0 0 0 0 h -1 v 1 0 0 1 h -1 v 1 0 1 0 h -1 v 1 0 1 0 l -1,1 v 0 0 1 0 1 h -1 v 1 0 0 1 h -1 v 1 0 1 0 h -1 v 2 l -1,1 v 1 l -1,1 v 2 l -1,1 -1,1 v 2 l -1,1 v 1 l -1,1 v 2 l -1,1 v 1 l -1,1 -1,2 v 1 l -1,1 v 1 l -1,2 v 1 l -1,1 -1,1 v 2 l -1,1 v 1 l -1,1 v 2 l -1,1 v 1 l -1,1 -1,2 v 0 0 0 0 0 0 0 0 0 0 0 0 0 0 0 0 0 0 0 0 0 0 0 0 0 0 0 0 0 0 0 0 l -1,3 -2,3 -1,4 -1,3 -2,3 -1,3 -2,4 -1,3 -2,3 -1,4 -2,3 -1,3 -2,4 -1,3 -2,3 -1,3 -2,4 -1,3 -2,3 -1,4 -2,3 -1,3 -2,4 -1,3 -1,3 -2,3 -1,4 -2,3 -1,3 -2,4 -1,3 -2,3 -4,9 -4,9 -4,9 -4,9 -4,9 -4,8 -4,9 -3,9 -4,9 -4,9 -4,9 -4,9 -4,9 -4,8 -4,9 -4,9 -4,9 -4,9 -4,9 -4,9 -4,9 -4,8 -4,9 -4,9 -4,9 -4,9 -4,9 -4,9 -4,9 -4,8 -4,9 -4,9 h -4 -5 -5 -4 -5 -4 -5 -5 -4 -5 -5 -4 -5 -5 -4 -5 -4 -5 -5 -4 -5 -5 -4 -5 -4 -5 -5 -4 -5 -5 -4 -5 l 6,-12 5,-13 6,-12 5,-12 6,-13 5,-12 6,-12 5,-13 17,-5 16,-5 17,-6 16,-5 17,-5 16,-5 17,-6 16,-5 5,-10 5,-11 5,-11 4,-10 5,-11 5,-10 5,-11 4,-10 -16,5 -17,5 -16,6 -17,5 -16,5 -17,6 -17,5 -16,5 2,-5 2,-5 3,-5 2,-5 2,-5 2,-5 3,-5 2,-5 15,-5 16,-5 16,-5 15,-5 16,-5 16,-5 15,-5 16,-5 5,-11 4,-10 5,-11 5,-10 5,-11 5,-10 4,-11 5,-10 -16,5 -15,5 -16,5 -16,5 -16,5 -15,5 -16,5 -16,5 2,-3 1,-4 2,-3 1,-3 1,-3 2,-3 1,-4 2,-3 1,-3 2,-4 2,-4 1,-3 2,-4 1,-3 2,-4 2,-3 v 0 0 0 0 0 0 0 0 0 0 0 0 0 0 0 0 0 0 0 0 0 0 0 0 0 0 0 0 0 0 0 0 l 1,-3 1,-3 2,-3 1,-3 1,-3 2,-3 1,-3 1,-3 2,-3 1,-3 1,-3 2,-3 1,-3 1,-3 2,-3 1,-3 1,-3 2,-3 1,-3 1,-3 2,-3 1,-3 1,-3 2,-3 1,-3 1,-3 2,-3 1,-3 1,-3 2,-3 1,-3 1,-3 h -21 -21 -22 -21 -21 -21 -22 -21 -21 -22 -21 -21 -21 -22 -21 -21 -22 -21 -21 -21 -22 -21 -21 -22 -21 -21 -21 -22 -21 -21 -22 -21 c -1,2 -3,5 -5,8 -1,3 -3,5 -4,8 -2,3 -4,6 -5,8 -2,3 -3,6 -4,9 -2,3 -3,5 -5,8 -1,3 -3,6 -4,9 -1,3 -3,6 -4,9 -1,2 -3,5 -4,8 -1,3 -2,6 -4,9 -1,3 -2,6 -3,9 -1,3 -3,6 -4,9 -1,3 -2,6 -3,9 -1,3 -2,6 -3,9 -1,3 -2,6 -3,9 -1,3 -2,6 -3,9 -1,3 -2,7 -3,10 -1,3 -2,6 -2,9 -1,3 -2,6 -3,9 -1,4 -1,7 -2,10 -1,3 -2,6 -2,9 -1,4 -2,7 -2,10 -1,3 -1,6 -2,10 0,3 -1,6 -2,9 0,4 -1,7 -1,10 0,3 -1,7 -1,10 -1,3 -1,7 -1,10 -1,3 -1,6 -1,10 -1,3 -1,6 -1,10 0,3 -1,6 -1,10 0,3 0,6 0,10 0,3 0,6 0,10 -1,3 -1,7 -1,10 0,10 1,20 1,29 1,10 1,20 2,29 1,10 3,20 4,29 1,10 3,19 5,28 2,10 4,19 6,28 3,9 5,18 8,27 3,9 6,18 9,27 3,8 7,17 10,26 4,8 8,17 12,25 4,8 8,16 12,24 5,9 9,17 14,24 5,8 10,16 15,24 5,7 11,15 16,22 5,7 11,15 17,22 6,7 12,14 18,20 6,7 12,14 19,20 6,7 13,13 20,19 6,6 13,12 20,18 8,6 15,12 22,17 7,6 15,11 22,16 8,5 16,10 24,15 8,5 15,9 24,14 8,4 16,8 24,12 9,4 17,8 26,12 8,3 17,7 26,10 8,3 17,6 26,9 9,3 18,5 27,8 9,2 19,4 28,6 9,2 19,4 28,5 9,1 19,3 29,4 9,1 19,1 29,2 9,0 19,1 29,1 5,0 10,0 15,-1 4,0 9,0 14,0 5,0 10,-1 14,-1 5,0 10,-1 15,-1 4,-1 9,-1 14,-2 5,0 9,-1 14,-2 5,0 9,-1 14,-2 5,-1 9,-2 14,-3 4,-1 9,-2 13,-3 5,-1 10,-2 14,-3 5,-1 9,-2 14,-4 4,-1 8,-2 13,-3 4,-2 9,-3 13,-5 4,-1 9,-3 13,-4 4,-2 9,-3 13,-5 4,-2 9,-3 13,-5 4,-2 8,-4 12,-6 5,-1 9,-3 13,-5 4,-2 8,-4 12,-6 4,-2 8,-4 12,-7 4,-2 8,-4 12,-6 4,-2 8,-5 12,-7 4,-2 8,-5 12,-7 3,-3 7,-5 11,-8 4,-2 7,-5 11,-7 4,-3 8,-5 11,-8 4,-3 7,-6 11,-8 4,-3 7,-6 11,-9 3,-3 7,-5 10,-8 3,-3 7,-6 10,-9 4,-3 7,-6 10,-9 4,-3 7,-7 10,-10 h -25 -24 -25 -25 -25 -24 -25 -25 -24 -25 -25 -24 -25 -25 -25 -24 -25 -25 -24 -25 -25 -25 -24 -25 -25 -24 -25 -25 -25 -24 -25 -25 l 2,-4 2,-4 2,-4 1,-3 2,-4 2,-4 2,-4 1,-4 2,-4 2,-4 2,-4 1,-4 2,-4 2,-4 2,-4 1,-4 2,-4 2,-4 2,-3 1,-4 2,-4 2,-4 2,-4 1,-4 2,-4 2,-4 2,-4 1,-4 2,-4 2,-4 2,-4 2,-4 v 0 0 0 0 0 0 0 0 0 0 0 0 0 0 0 0 0 0 0 0 0 0 0 0 0 0 0 0 0 0 0 0 0 0 -1 0 -1 h 1 v -1 0 -1 0 h 1 v -1 0 -1 0 l 1,-1 v 0 0 -1 0 l 1,-1 v 0 -1 0 0 l 1,-1 v 0 -1 0 -1 0 h 1 v -2 l 1,-1 v -1 l 1,-1 v -2 l 1,-1 1,-1 v -1 l 1,-2 v -1 l 1,-1 v -1 l 1,-2 1,-1 v -1 l 1,-1 v -2 l 1,-1 v -1 l 1,-2 v -1 l 1,-1 1,-1 v -2 l 1,-1 v -1 l 1,-1 v -2 l 1,-1 1,-1 v -1 l 1,-2 v 0 0 0 0 0 0 0 0 0 0 0 0 0 0 0 0 0 0 0 0 0 0 0 0 0 0 0 0 0 0 0 0 l 1,-3 2,-3 1,-3 2,-4 1,-3 2,-3 1,-4 1,-3 c 3,-6 6,-12 9,-19 3,-6 5,-12 8,-19 3,-6 6,-12 9,-18 2,-7 5,-13 8,-19 3,-6 6,-13 8,-19 3,-6 6,-12 9,-19 3,-6 5,-12 8,-18 3,-7 6,-13 9,-19 l 4,-9 3,-9 4,-9 4,-9 4,-9 4,-8 4,-9 4,-9 4,-9 4,-9 4,-9 4,-9 4,-9 4,-8 4,-9 4,-9 4,-9 4,-9 4,-9 4,-9 4,-8 4,-9 4,-9 4,-9 h 4 5 5 4 5 5 4 5 4 5 5 4 5 5 4 5 4 5 5 4 5 5 4 5 4 5 5 4 5 5 4 5 l -3,7 -4,8 -3,7 -3,8 -4,7 -3,8 -3,7 -4,8 -15,5 -16,5 -16,5 -15,5 -16,5 -16,5 -15,5 -16,5 -5,10 -5,11 -4,10 -5,11 -5,10 -5,11 -4,10 -5,11 16,-5 15,-5 16,-5 16,-5 16,-5 15,-5 16,-5 16,-5 -2,5 -3,5 -2,5 -2,5 -2,5 -3,5 -2,5 -2,5 -15,5 -15,4 -15,5 -14,5 -15,4 -15,5 -15,5 -15,5 -4,10 -5,11 -5,10 -5,11 -4,10 -5,11 -5,10 -5,11 15,-5 15,-5 15,-4 15,-5 15,-5 15,-5 14,-4 15,-5 -6,15 -7,14 -6,15 -7,15 -7,14 -6,15 -7,15 -6,14 -2,3 -1,3 -1,3 -2,3 -1,3 -1,3 -2,3 -1,3 -1,3 -2,3 -1,3 -1,3 -2,3 -1,3 -1,3 -2,3 -1,3 -1,3 -2,3 -1,3 -1,3 -2,3 -1,3 -1,3 h 21 21 22 21 21 21 22 21 21 22 21 21 21 22 21 21 22 21 21 21 22 21 21 22 21 21 21 22 21 21 22 21 c 2,-2 3,-5 5,-8 1,-3 3,-5 5,-8 1,-3 3,-6 4,-8 2,-3 3,-6 5,-9 1,-3 2,-5 4,-8 1,-3 3,-6 4,-9 1,-3 3,-6 4,-8 1,-3 3,-6 4,-9 1,-3 3,-6 4,-9 1,-3 2,-6 3,-9 2,-3 3,-6 4,-9 1,-3 2,-6 3,-9 1,-3 2,-6 3,-9 1,-3 2,-6 3,-9 1,-3 2,-6 3,-9 1,-3 2,-6 3,-10 1,-3 2,-6 3,-9 0,-3 1,-6 2,-9 1,-3 1,-7 2,-10 1,-3 2,-6 2,-9 1,-4 2,-7 2,-10 1,-3 1,-6 2,-10 1,-3 1,-6 2,-9 0,-4 1,-7 1,-10 1,-3 1,-7 1,-10 1,-3 1,-6 1,-10 1,-3 1,-6 1,-10 1,-3 1,-6 1,-10 0,-3 1,-6 1,-10 0,-3 0,-6 0,-10 0,-3 0,-6 1,-10 0,-3 0,-7 0,-10 0,-10 -1,-20 -1,-29 -1,-10 -1,-20 -2,-29 -1,-10 -3,-20 -4,-29 -1,-9 -3,-19 -5,-28 -2,-9 -4,-19 -6,-28 -3,-9 -5,-18 -8,-27 -3,-9 -6,-18 -9,-26 -3,-9 -7,-18 -10,-26 -4,-9 -8,-17 -12,-26 -4,-8 -8,-16 -12,-24 -5,-8 -9,-16 -14,-24 -5,-8 -10,-16 -15,-24 -5,-7 -10,-15 -16,-22 -5,-7 -11,-14 -17,-22 -6,-7 -12,-14 -18,-20 -6,-7 -12,-14 -19,-20 -6,-7 -13,-13 -20,-19 -6,-6 -13,-12 -20,-18 -7,-6 -15,-12 -22,-17 -7,-5 -15,-11 -22,-16 -8,-5 -16,-10 -24,-15 -7,-5 -15,-9 -24,-14 -8,-4 -16,-8 -24,-12 -8,-4 -17,-8 -25,-12 -9,-3 -18,-7 -26,-10 -9,-3 -18,-6 -27,-9 -9,-3 -18,-5 -27,-8 -9,-2 -18,-4 -28,-6 -9,-2 -18,-4 -28,-5 -9,-1 -19,-3 -29,-4 -9,-1 -19,-1 -29,-2 -9,0 -19,-1 -29,-1 z"
       id="path7"
       style="fill:#4d4d4d" />
  </g>
</svg>
