<?xml version="1.0" encoding="UTF-8" standalone="no"?>
<!-- Generator: Adobe Illustrator 20.1.0, SVG Export Plug-In . SVG Version: 6.00 Build 0)  -->

<svg
   xmlns:dc="http://purl.org/dc/elements/1.1/"
   xmlns:cc="http://creativecommons.org/ns#"
   xmlns:rdf="http://www.w3.org/1999/02/22-rdf-syntax-ns#"
   xmlns:svg="http://www.w3.org/2000/svg"
   xmlns="http://www.w3.org/2000/svg"
   xmlns:sodipodi="http://sodipodi.sourceforge.net/DTD/sodipodi-0.dtd"
   xmlns:inkscape="http://www.inkscape.org/namespaces/inkscape"
   version="1.1"
   id="Bitcoin_Symbol"
   x="0px"
   y="0px"
   viewBox="0 0 20.225201 20.225201"
   xml:space="preserve"
   sodipodi:docname="icon-bitcoin-symbol.svg"
   width="20.225201"
   height="20.225201"
   inkscape:version="0.92.3 (2405546, 2018-03-11)"><metadata
   id="metadata11"><rdf:RDF><cc:Work
       rdf:about=""><dc:format>image/svg+xml</dc:format><dc:type
         rdf:resource="http://purl.org/dc/dcmitype/StillImage" /><dc:title></dc:title></cc:Work></rdf:RDF></metadata><defs
   id="defs9" /><sodipodi:namedview
   pagecolor="#ffffff"
   bordercolor="#666666"
   borderopacity="1"
   objecttolerance="10"
   gridtolerance="10"
   guidetolerance="10"
   inkscape:pageopacity="0"
   inkscape:pageshadow="2"
   inkscape:window-width="1920"
   inkscape:window-height="1027"
   id="namedview7"
   showgrid="false"
   inkscape:zoom="20.85965"
   inkscape:cx="18.997223"
   inkscape:cy="7.0017039"
   inkscape:window-x="-8"
   inkscape:window-y="-8"
   inkscape:window-maximized="1"
   inkscape:current-layer="Bitcoin_Symbol" />
<style
   type="text/css"
   id="style2">
	.st0{fill:#5D5D5D;}
</style>

<g
   transform="matrix(0.00219163,0,0,0.00219163,12.854111,13.783323)"
   style="clip-rule:evenodd;fill:#4d4d4d;fill-rule:evenodd;image-rendering:optimizeQuality;shape-rendering:geometricPrecision;text-rendering:geometricPrecision"
   id="Layer_x0020_1"><metadata
     id="CorelCorpID_0Corel-Layer" /><path
     inkscape:connector-curvature="0"
     class="fil0"
     d="m -1250.9005,-6289.0738 c 158.7151,0 316.61218,8.1812 471.23667,23.7255 155.44261,15.5443 308.43087,39.2697 458.14665,70.3582 150.5339,30.2704 297.795318,68.722 442.60239,113.7186 143.98895,44.1784 285.52354,96.538 423.78565,154.6245 138.26211,58.9045 272.43363,123.5359 403.33269,194.7123 130.89895,71.1763 257.70745,148.0795 380.42525,230.7096 122.7179,83.4481 241.3451,171.8049 355.0637,265.8886 113.7185,94.0837 223.3465,193.0761 328.0657,297.7954 103.9011,103.9011 203.7116,213.529 297.7953,327.2476 94.0837,114.5366 182.4405,232.3458 265.0705,355.8817 83.4482,122.7179 160.3514,249.5263 231.5277,379.6073 71.1764,130.899 135.8078,265.8886 193.8942,404.1508 58.9046,137.444 110.4461,278.9785 155.4426,423.7856 44.9966,143.989 82.6301,292.0685 113.7186,441.7843 31.0885,150.5339 53.9958,302.704 69.5401,458.1466 16.3624,155.4426 24.5436,312.5215 24.5436,472.0547 0,158.7151 -8.1812,316.6121 -24.5436,471.2366 -15.5443,155.4426 -38.4516,308.43084 -69.5401,458.14664 -31.0885,150.5339 -68.722,297.79533 -113.7186,442.6024 -44.9965,143.98894 -96.538,285.523533 -155.4426,423.78565 -58.0864,138.2621 -122.7178,272.43362 -193.8942,403.33266 -71.1763,130.89904 -148.0795,257.70749 -231.5277,380.42534 -82.63,122.71781 -170.9868,241.34511 -265.0705,355.06371 -94.0837,113.7185 -193.8942,223.3464 -297.7953,328.0656 -104.7192,103.9011 -214.3472,203.7117 -328.0657,297.7954 -113.7186,94.0836 -232.3458,182.4405 -355.0637,265.0705 -122.7178,83.4482 -249.5263,160.3513 -380.42525,231.5277 -130.89906,71.1764 -265.07058,135.8078 -403.33269,193.8942 -138.26211,58.9046 -279.7967,110.4461 -423.78565,155.4426 -144.807072,44.9966 -292.06849,82.63 -442.60239,113.7186 -149.71578,31.0885 -302.70404,53.9958 -458.14665,69.5401 -154.62449,16.3624 -312.52157,24.5436 -471.23667,24.5436 -159.5332,0 -316.6121,-8.1812 -472.0547,-24.5436 -155.4426,-15.5443 -307.6127,-38.4516 -458.1466,-69.5401 -149.7158,-31.0886 -297.7953,-68.722 -441.7843,-113.7186 -144.8071,-44.9965 -286.3417,-96.538 -423.7856,-155.4426 -138.2622,-58.0864 -273.2518,-122.7178 -404.1508,-193.8942 -130.081,-71.1764 -256.8894,-148.0795 -379.6073,-231.5277 -123.5359,-82.63 -241.3451,-170.9869 -355.8817,-265.0705 -113.7186,-94.0837 -223.3465,-193.8943 -327.2476,-297.7954 -104.7193,-104.7192 -203.7117,-214.3471 -297.7954,-328.0656 -94.0837,-113.7186 -182.4405,-232.3459 -265.8886,-355.06371 -82.6301,-122.71785 -159.5333,-249.5263 -230.7096,-380.42534 -71.1764,-130.89904 -135.8078,-265.07056 -194.7123,-403.33266 -58.0865,-138.262117 -110.4461,-279.79671 -154.6245,-423.78565 -44.9966,-144.80707 -83.4482,-292.0685 -113.7186,-442.6024 -31.0885,-149.7158 -54.814,-302.70404 -70.3582,-458.14664 -15.5443,-154.6245 -23.7255,-312.5215 -23.7255,-471.2366 0,-159.5332 8.1812,-316.6121 23.7255,-472.0547 15.5442,-155.4426 39.2697,-307.6127 70.3582,-458.1466 30.2704,-149.7158 68.722,-297.7953 113.7186,-441.7843 44.1784,-144.8071 96.538,-286.3416 154.6245,-423.7856 58.9045,-138.2622 123.5359,-273.2518 194.7123,-404.1508 71.1763,-130.081 148.0795,-256.8894 230.7096,-379.6073 83.4481,-123.5359 171.8049,-241.3451 265.8886,-355.8817 94.0837,-113.7186 193.0761,-223.3465 297.7954,-327.2476 103.9011,-104.7193 213.529,-203.7117 327.2476,-297.7954 114.5366,-94.0837 232.3458,-182.4405 355.8817,-265.8886 122.7179,-82.6301 249.5263,-159.5333 379.6073,-230.7096 130.899,-71.1764 265.8886,-135.8078 404.1508,-194.7123 137.4439,-58.0865 278.9785,-110.4461 423.7856,-154.6245 143.989,-44.9966 292.0685,-83.4482 441.7843,-113.7186 150.5339,-31.0885 302.704,-54.8139 458.1466,-70.3582 155.4426,-15.5443 312.5215,-23.7255 472.0547,-23.7255 z m 0,857.3888 c -256.0713,0 -506.4157,25.3617 -747.7608,74.4488 -241.3451,49.0871 -474.509,120.2635 -697.0374,213.5291 -221.7102,92.4474 -433.6031,206.166 -631.5879,337.8831 -198.8029,131.7172 -383.6978,281.433 -553.0484,447.5111 H -2581.162 -1281.1709 18.002208 1317.1752 l -92.4475,206.9841 -92.4474,206.9841 -92.4475,206.9842 -92.44735,206.166 v 0 0 0 0 l -9.8175,22.9073 -10.6355,22.9073 -9.8174,22.9073 -10.6356,22.0893 -29.4523,66.2676 -29.45225,66.2676 -29.45229,65.4496 -29.45228,66.2676 v 0 0 0 0 l -77.72131,173.4412 -76.90319,173.4413 -77.7213,173.4412 -77.72131,173.4412 -208.62035,466.3279 -208.620352,467.1459 -208.620348,466.3279 -207.80223,466.32784 h -243.79947 -243.79946 -242.98141 -243.7995 l 290.4323,-650.40464 868.02432,-276.5242 250.344418,-553.8666 -871.296758,278.1605 117.80914,-264.2525 822.20962,-262.6162 250.34442,-553.0484 -826.30021,263.4343 75.26695,-168.5325 84.26626,-188.9855 v 0 0 0 0 l 70.35823,-157.0789 70.35824,-157.897 70.358231,-157.0788 70.358237,-157.897 H -1106.9115 -2226.0984 -3345.2852 -4464.472 c -85.9025,142.3527 -162.8057,290.4323 -229.8914,444.2386 -67.0858,152.9883 -124.3541,311.7034 -170.9869,475.3272 -46.6328,163.6238 -81.8119,331.3382 -106.3555,503.1432 -23.7254,171.805 -35.9972,346.8825 -35.9972,525.2324 0,518.6875 104.7192,1012.83134 295.3409,1461.97873 189.8036,449.14732 464.6916,854.11624 805.0291,1194.45375 339.5194,339.51942 744.4884,614.40732 1193.6357,805.02912 449.9655,189.8036 944.1093,295.3409 1462.7968,295.3409 256.07137,0 505.59767,-26.1798 746.94278,-74.4488 241.34511,-49.0872 474.509028,-121.0816 697.0374,-213.5291 222.52838,-93.2655 433.60308,-206.166 632.406,-337.8831 197.98472,-131.7171 382.87962,-282.251 552.23032,-448.3292 H 78.543018 -1220.6301 h -1299.173 -1299.173 l 91.6293,-206.98412 93.2656,-206.166 92.4474,-206.9841 91.6294,-206.98412 v 0 0 0 0 l 10.6355,-22.90733 9.8175,-22.08922 10.6355,-22.90731 9.8174,-22.907327 29.4523,-65.44953 29.4523,-66.26764 29.4523,-66.267643 29.4523,-65.44952 v 0 0 0 0 l 77.7213,-174.25935 c 147.2614,-328.88385 293.7047,-657.76769 440.9661,-986.65159 l 208.6204,-466.3278 208.6203,-467.146 208.6204,-466.3278 h 243.7994 242.9814 243.7995 242.9813 l -175.0775,392.6971 -823.0277,261.7981 -250.3444,553.8666 827.1183,-263.4344 -117.8091,264.2525 -778.8493,247.89 -250.3445,553.86664 782.1218,-249.5263 -344.4281,773.12249 -70.3582,157.078853 -70.3582,157.896977 -70.3583,157.07883 H -1395.7076 -276.52063 842.66618 1961.853 c 86.7206,-141.53459 163.6238,-290.432227 230.7095,-443.42049 67.0857,-153.80638 124.354,-312.52147 170.1687,-476.14526 46.6328,-162.8057 82.63,-331.3382 106.3555,-502.32514 23.7254,-171.805 36.8153,-346.8825 36.8153,-525.2324 0,-518.6875 -105.5373,-1012.8313 -295.3409,-1462.7968 -190.6217,-449.1473 -465.5097,-854.1163 -805.0291,-1193.6356 -340.3375,-340.3376 -745.30636,-615.2256 -1194.4537,-805.0292 -449.14734,-190.6217 -943.29123,-295.3409 -1461.9788,-295.3409 z"
     id="path7"
     style="fill:#4d4d4d;stroke-width:0.81811899" /></g></svg>