<?xml version="1.0" encoding="UTF-8"?>
<!DOCTYPE svg PUBLIC "-//W3C//DTD SVG 1.1//EN" "http://www.w3.org/Graphics/SVG/1.1/DTD/svg11.dtd">
<!-- Creator: CorelDRAW X7 -->
<svg xmlns="http://www.w3.org/2000/svg" xml:space="preserve" width="20.9544cm" height="20.9544cm" version="1.1" style="shape-rendering:geometricPrecision; text-rendering:geometricPrecision; image-rendering:optimizeQuality; fill-rule:evenodd; clip-rule:evenodd"
viewBox="0 0 707 707"
 xmlns:xlink="http://www.w3.org/1999/xlink">
 <defs>
  <style type="text/css">
   <![CDATA[
    .str0 {stroke:#FFFEFE;stroke-width:15.3749}
    .fil1 {fill:none}
    .fil0 {fill:#339966}
   ]]>
  </style>
 </defs>
 <g id="Layer_x0020_1">
  <metadata id="CorelCorpID_0Corel-Layer"/>
  <g id="_2227206400496">
   <path id="Oval-87" class="fil0" d="M354 707c195,0 353,-158 353,-353 0,-196 -158,-354 -353,-354 -196,0 -354,158 -354,354 0,195 158,353 354,353z"/>
   <path id="Shape" class="fil1 str0" d="M515 269l-215 0c-51,0 -92,42 -92,92l0 16"/>
   <path id="Shape_1_" class="fil1 str0" d="M208 454l215 0c51,0 92,-42 92,-93l0 -15"/>
   <polyline id="Shape_2_" class="fil1 str0" points="454,331 515,269 454,208 "/>
   <polyline id="Shape_3_" class="fil1 str0" points="269,392 208,454 269,515 "/>
  </g>
 </g>
</svg>
