<?xml version="1.0" encoding="UTF-8"?>
<!DOCTYPE svg PUBLIC "-//W3C//DTD SVG 1.1//EN" "http://www.w3.org/Graphics/SVG/1.1/DTD/svg11.dtd">
<!-- Creator: CorelDRAW X7 -->
<svg xmlns="http://www.w3.org/2000/svg" xml:space="preserve" width="19.46cm" height="26.04cm" version="1.1" style="shape-rendering:geometricPrecision; text-rendering:geometricPrecision; image-rendering:optimizeQuality; fill-rule:evenodd; clip-rule:evenodd"
viewBox="0 0 671 898"
 xmlns:xlink="http://www.w3.org/1999/xlink">
 <defs>
  <style type="text/css">
   <![CDATA[
    .fil0 {fill:#339966}
   ]]>
  </style>
 </defs>
 <g id="Layer_x0020_1">
  <metadata id="CorelCorpID_0Corel-Layer"/>
  <g id="_2227206406480">
   <path class="fil0" d="M565 290l0 -63c0,-130 -97,-227 -227,-227 -130,0 -227,97 -227,227l0 68 -111 0 0 603 671 0 0 -608 -106 0zm-367 -63c0,-77 63,-140 140,-140 77,0 140,63 140,140l0 68 -280 0 0 -68zm386 580l-492 0 0 -425 19 0 454 0 24 0 0 425 -5 0z"/>
   <path class="fil0" d="M338 439c-63,0 -116,54 -116,116 0,49 34,92 73,107l0 33 91 0 0 -33c44,-20 73,-58 73,-107 -5,-62 -58,-116 -121,-116zm0 92c15,0 29,15 29,29 0,20 -14,29 -29,29 -14,0 -29,-14 -29,-29 0,-14 15,-29 29,-29z"/>
  </g>
 </g>
</svg>
