<?xml version="1.0" encoding="UTF-8"?>
<!DOCTYPE svg PUBLIC "-//W3C//DTD SVG 1.1//EN" "http://www.w3.org/Graphics/SVG/1.1/DTD/svg11.dtd">
<!-- Creator: CorelDRAW X7 -->
<svg xmlns="http://www.w3.org/2000/svg" xml:space="preserve" width="9.9752cm" height="6.5352cm" version="1.1" style="shape-rendering:geometricPrecision; text-rendering:geometricPrecision; image-rendering:optimizeQuality; fill-rule:evenodd; clip-rule:evenodd"
viewBox="0 0 1558 1021"
 xmlns:xlink="http://www.w3.org/1999/xlink">
 <defs>
  <style type="text/css">
   <![CDATA[
    .str0 {stroke:yellow;stroke-width:8.26405;stroke-linecap:square;stroke-opacity:0.639216}
    .str1 {stroke:yellow;stroke-width:12.3945}
    .fil5 {fill:none;fill-rule:nonzero}
    .fil6 {fill:#FF6633;fill-rule:nonzero}
    .fil4 {fill:#FFCC00;fill-rule:nonzero}
    .fil2 {fill:#13E5B6;fill-opacity:0.090196}
    .fil3 {fill:#13E5B6;fill-opacity:0.301961}
    .fil1 {fill:url(#id0);fill-rule:nonzero;fill-opacity:0.301961}
    .fil0 {fill:url(#id1);fill-rule:nonzero;fill-opacity:0.301961}
   ]]>
  </style>
  <linearGradient id="id0" gradientUnits="userSpaceOnUse" x1="783.032" y1="764.251" x2="783.032" y2="144.488">
   <stop offset="0" style="stop-opacity:1; stop-color:#192C3A"/>
   <stop offset="1" style="stop-opacity:1; stop-color:#192C3A"/>
  </linearGradient>
  <linearGradient id="id1" gradientUnits="userSpaceOnUse" xlink:href="#id0" x1="783.032" y1="107.567" x2="783.032" y2="1020.54">
  </linearGradient>
 </defs>
 <g id="Layer_x0020_1">
  <metadata id="CorelCorpID_0Corel-Layer"/>
  <g id="_2227170862864">
   <g id="Page-1">
    <g id="tour-currency">
     <path id="Shape" class="fil0" d="M783 1021c282,0 510,-229 510,-511 0,-282 -228,-510 -510,-510 -282,0 -510,228 -510,510 0,282 228,511 510,511z"/>
     <polygon id="Shape_0" class="fil1" points="233,526 412,404 587,495 771,333 929,333 1032,196 1169,278 1335,232 1558,145 1558,764 629,764 10,764 8,552 "/>
     <g id="Group">
      <path id="Shape_1" class="fil2" d="M1249 764l-2 0 0 -16 2 0 0 16zm0 -33l-2 0 0 -16 2 0 0 16zm0 -33l-2 0 0 -16 2 0 0 16zm0 -33l-2 0 0 -16 2 0 0 16zm0 -33l-2 0 0 -16 2 0 0 16zm0 -33l-2 0 0 -16 2 0 0 16zm0 -33l-2 0 0 -16 2 0 0 16zm0 -33l-2 0 0 -17 2 0 0 17zm0 -33l-2 0 0 -17 2 0 0 17zm0 -33l-2 0 0 -17 2 0 0 17zm0 -33l-2 0 0 -17 2 0 0 17zm0 -33l-2 0 0 -17 2 0 0 17zm0 -33l-2 0 0 -17 2 0 0 17zm0 -33l-2 0 0 -17 2 0 0 17zm0 -33l-2 0 0 -17 2 0 0 17zm0 -33l-2 0 0 -17 2 0 0 17z"/>
      <path id="Shape_2" class="fil3" d="M939 764l-2 0 0 -16 2 0 0 16zm0 -33l-2 0 0 -16 2 0 0 16zm0 -33l-2 0 0 -16 2 0 0 16zm0 -33l-2 0 0 -16 2 0 0 16zm0 -33l-2 0 0 -16 2 0 0 16zm0 -33l-2 0 0 -16 2 0 0 16zm0 -33l-2 0 0 -16 2 0 0 16zm0 -33l-2 0 0 -17 2 0 0 17zm0 -33l-2 0 0 -17 2 0 0 17zm0 -33l-2 0 0 -17 2 0 0 17zm0 -33l-2 0 0 -17 2 0 0 17zm0 -33l-2 0 0 -17 2 0 0 17zm0 -33l-2 0 0 -17 2 0 0 17zm0 -33l-2 0 0 -14 2 0 0 14z"/>
      <path id="Shape_3" class="fil2" d="M629 764l-2 0 0 -16 2 0 0 16zm0 -33l-2 0 0 -16 2 0 0 16zm0 -33l-2 0 0 -16 2 0 0 16zm0 -33l-2 0 0 -16 2 0 0 16zm0 -33l-2 0 0 -16 2 0 0 16zm0 -33l-2 0 0 -16 2 0 0 16zm0 -33l-2 0 0 -16 2 0 0 16zm0 -33l-2 0 0 -17 2 0 0 17zm0 -33l-2 0 0 -17 2 0 0 17zm0 -33l-2 0 0 -8 2 0 0 8z"/>
      <path id="Shape_4" class="fil2" d="M319 764l-2 0 0 -16 2 0 0 16zm0 -33l-2 0 0 -16 2 0 0 16zm0 -33l-2 0 0 -16 2 0 0 16zm0 -33l-2 0 0 -16 2 0 0 16zm0 -33l-2 0 0 -16 2 0 0 16zm0 -33l-2 0 0 -16 2 0 0 16zm0 -33l-2 0 0 -16 2 0 0 16zm0 -33l-2 0 0 -17 2 0 0 17zm0 -33l-2 0 0 -17 2 0 0 17z"/>
     </g>
     <path id="Shape_5" class="fil4" d="M4 556c-2,0 -4,-2 -4,-4 0,-2 1,-4 4,-5l223 -25 178 -121c2,-1 3,-1 5,-1l172 90 182 -159c1,-1 2,-1 3,-1l156 0 101 -136c2,-1 4,-2 6,-1l135 81 165 -46 222 -87c2,-1 4,0 5,2 1,2 0,5 -2,6l-222 87 -1 0 -167 46c-1,0 -2,0 -3,-1l-133 -79 -101 134c0,2 -2,2 -3,2l-156 0 -183 161c-1,1 -3,1 -5,1l-173 -91 -177 121c0,0 -1,0 -2,1l-224 25c0,0 -1,0 -1,0z"/>
     <g id="Group_6">
      <line id="Line_1_" class="fil5 str0" x1="783" y1="159" x2="783" y2= "762" />
      <circle id="dot" class="fil6 str1" cx="783" cy="328" r="19"/>
     </g>
    </g>
   </g>
  </g>
 </g>
</svg>
