<?xml version="1.0" encoding="UTF-8"?>
<!DOCTYPE svg PUBLIC "-//W3C//DTD SVG 1.1//EN" "http://www.w3.org/Graphics/SVG/1.1/DTD/svg11.dtd">
<!-- Creator: CorelDRAW X7 -->
<svg xmlns="http://www.w3.org/2000/svg" xml:space="preserve" width="6.53519cm" height="6.73888cm" version="1.1" style="shape-rendering:geometricPrecision; text-rendering:geometricPrecision; image-rendering:optimizeQuality; fill-rule:evenodd; clip-rule:evenodd"
viewBox="0 0 1101 1135"
 xmlns:xlink="http://www.w3.org/1999/xlink">
 <defs>
  <style type="text/css">
   <![CDATA[
    .str3 {stroke:#707D89;stroke-width:8.91217;stroke-opacity:0.396078}
    .str0 {stroke:#707D89;stroke-width:8.91217}
    .str2 {stroke:#FFCC00;stroke-width:13.3683;stroke-linecap:square}
    .str1 {stroke:#707D89;stroke-width:8.91217;stroke-linecap:square}
    .fil2 {fill:none;fill-rule:nonzero}
    .fil3 {fill:#707D89}
    .fil4 {fill:#192C3A;fill-rule:nonzero;fill-opacity:0.396078}
    .fil1 {fill:#192C3A;fill-rule:nonzero;fill-opacity:0.650980}
    .fil5 {fill:#FFCC00;fill-opacity:0.811765}
    .fil0 {fill:url(#id0);fill-rule:nonzero;fill-opacity:0.301961}
   ]]>
  </style>
  <linearGradient id="id0" gradientUnits="userSpaceOnUse" x1="550.29" y1="150.306" x2="550.29" y2="1134.88">
   <stop offset="0" style="stop-opacity:1; stop-color:#192C3A"/>
   <stop offset="1" style="stop-opacity:1; stop-color:#192C3A"/>
  </linearGradient>
 </defs>
 <g id="Layer_x0020_1">
  <metadata id="CorelCorpID_0Corel-Layer"/>
  <path id="Oval-2" class="fil0" d="M550 1135c304,0 551,-246 551,-550 0,-304 -247,-551 -551,-551 -304,0 -550,247 -550,551 0,304 246,550 550,550z"/>
  <path class="fil1" d="M319 4l463 2c25,0 44,19 44,44l-2 928c0,24 -20,44 -44,44l-463 -1c-25,0 -45,-20 -44,-45l2 -927c0,-25 20,-45 44,-45z"/>
  <path class="fil2 str0" d="M319 4l463 2c25,0 44,19 44,44l-2 928c0,24 -20,44 -44,44l-463 -1c-25,0 -45,-20 -44,-45l2 -927c0,-25 20,-45 44,-45z"/>
  <line id="Line" class="fil2 str1" x1="276" y1="905" x2="822" y2= "906" />
  <line id="Line_0" class="fil2 str1" x1="505" y1="48" x2="609" y2= "48" />
  <rect class="fil3" transform="matrix(0.831718 0.00811647 -0.00811647 0.831718 490.741 929.826)" width="141.695" height="50.797" rx="17" ry="17"/>
  <line id="Line_1" class="fil2 str2" x1="333" y1="268" x2="501" y2= "268" />
  <line id="Line_2" class="fil2 str2" x1="374" y1="228" x2="468" y2= "228" />
  <rect id="path-2" class="fil2 str0" x="276" y="181" width="544" height="151"/>
  <path class="fil3" d="M549 604c3,0 6,0 9,1 3,0 6,0 9,1 3,0 6,1 8,2 3,1 6,2 8,3 3,1 5,2 8,4 2,1 5,2 7,4 2,2 5,3 7,5 2,2 4,4 6,6 2,2 4,4 6,6 1,2 3,4 5,7 1,2 3,4 4,7 1,2 3,5 4,7 1,3 2,6 3,8 0,3 1,6 2,9 0,2 1,5 1,8 0,3 1,6 1,9 0,3 -1,6 -1,9 0,3 -1,6 -1,9 -1,3 -2,5 -2,8 -1,3 -2,5 -3,8 -1,3 -3,5 -4,8 -1,2 -3,5 -4,7 -2,2 -4,4 -5,7 -2,2 -4,4 -6,6 -2,2 -4,4 -6,5 -2,2 -5,4 -7,5 -2,2 -5,3 -7,5 -3,1 -5,2 -8,3 -2,2 -5,3 -8,3 -2,1 -5,2 -8,3 -3,0 -6,1 -9,1 -3,0 -6,0 -9,0 -3,0 -6,0 -8,0 -3,0 -6,-1 -9,-1 -3,-1 -6,-2 -8,-3 -3,0 -6,-1 -8,-3 -3,-1 -6,-2 -8,-3 -3,-2 -5,-3 -7,-5 -3,-1 -5,-3 -7,-5 -2,-1 -4,-3 -6,-5 -2,-2 -4,-4 -6,-6 -2,-3 -3,-5 -5,-7 -1,-2 -3,-5 -4,-7 -1,-3 -3,-5 -4,-8 -1,-3 -2,-5 -3,-8 -1,-3 -1,-5 -2,-8 0,-3 -1,-6 -1,-9 0,-3 -1,-6 -1,-9 0,-3 1,-6 1,-9 0,-3 1,-6 1,-8 1,-3 1,-6 2,-9 1,-2 2,-5 3,-8 1,-2 3,-5 4,-7 1,-3 3,-5 4,-7 2,-3 3,-5 5,-7 2,-2 4,-4 6,-6 2,-2 4,-4 6,-6 2,-2 4,-3 7,-5 2,-2 4,-3 7,-4 2,-2 5,-3 8,-4 2,-1 5,-2 8,-3 2,-1 5,-2 8,-2 3,-1 6,-1 9,-1 2,-1 5,-1 8,-1zm0 16c-4,0 -9,1 -14,2 -4,1 -9,2 -13,4 -4,1 -8,4 -12,6 -3,3 -7,5 -10,9l24 0 25 0 24 0 25 0 -2 3 -2 4 -1 4 -2 4 0 0 0 0 0 0 0 0 0 1 0 0 -1 0 0 1 0 1 -1 1 0 2 -1 1 0 0 0 0 0 0 0 0 -2 3 -1 3 -1 4 -2 3 -4 9 -4 9 -4 8 -4 9 -4 0 -5 0 -4 0 -5 0 5 -12 17 -5 5 -11 -17 5 2 -4 16 -5 5 -11 -16 5 1 -3 2 -4 0 0 0 0 0 0 0 0 1 -3 2 -3 1 -3 1 -3 -21 0 -21 0 -21 0 -21 0c-2,3 -3,6 -5,9 -1,3 -2,6 -3,9 -1,3 -1,6 -2,9 0,4 0,7 0,10 0,10 2,19 5,28 4,8 9,16 15,22 7,7 14,12 23,16 8,3 18,5 27,5 5,0 10,0 15,-1 4,-1 9,-3 13,-4 4,-2 8,-4 12,-7 3,-2 7,-5 10,-8l-24 0 -25 0 -24 0 -25 0 2 -4 1 -4 2 -4 2 -4 0 0 0 0 0 0 0 0 0 0 0 -1 1 0 0 0 0 -2 1 -1 0 -1 1 -1 0 0 0 0 0 0 0 0 1 -4c3,-6 6,-12 9,-18l4 -9 4 -9 4 -9 4 0 5 0 4 0 5 0 -3 8 -16 5 -5 10 16 -5 -2 5 -15 5 -5 10 15 -5 -6 15 -2 3 -1 3 -1 3 21 0 21 0 21 0 21 0c2,-3 3,-6 4,-8 2,-3 3,-6 4,-9 1,-3 1,-7 2,-10 0,-3 0,-6 0,-10 0,-10 -2,-19 -5,-27 -4,-9 -9,-17 -15,-23 -7,-6 -14,-12 -23,-15 -8,-4 -18,-6 -28,-6z"/>
  <path id="Oval-2_3" class="fil4 str3" d="M928 338c0,-110 -94,-198 -209,-198 -116,0 -210,88 -210,198 0,109 94,198 210,198 115,0 209,-89 209,-198z"/>
  <path id="Shape" class="fil5" d="M719 249c5,0 15,3 15,3 28,6 48,31 48,59l0 67 0 8 6 5 5 5 -148 0 5 -5 5 -5 0 -8 0 -67c0,-28 20,-53 48,-59 0,0 11,-3 15,-3l1 0zm0 -42c-11,0 -19,7 -19,18l0 8c-37,8 -64,40 -64,78l0 67 -26 25 0 12 217 0 0 -12 -25 -25 0 -67c0,-38 -28,-70 -64,-78l0 -8c0,-11 -8,-18 -19,-18l0 0 0 0zm25 220l-51 0c0,14 12,25 26,25 14,0 25,-11 25,-25l0 0 0 0z"/>
 </g>
</svg>
