<?xml version="1.0" encoding="UTF-8"?>
<!DOCTYPE svg PUBLIC "-//W3C//DTD SVG 1.1//EN" "http://www.w3.org/Graphics/SVG/1.1/DTD/svg11.dtd">
<!-- Creator: CorelDRAW X7 -->
<svg xmlns="http://www.w3.org/2000/svg" xml:space="preserve" width="6.5352cm" height="6.5352cm" version="1.1" style="shape-rendering:geometricPrecision; text-rendering:geometricPrecision; image-rendering:optimizeQuality; fill-rule:evenodd; clip-rule:evenodd"
viewBox="0 0 567 567"
 xmlns:xlink="http://www.w3.org/1999/xlink">
 <defs>
  <style type="text/css">
   <![CDATA[
    .str0 {stroke:#707D89;stroke-width:4.58905}
    .str1 {stroke:#707D89;stroke-width:4.58905;stroke-linecap:square}
    .fil2 {fill:none;fill-rule:nonzero}
    .fil3 {fill:#707D89}
    .fil4 {fill:#FFCC00}
    .fil1 {fill:#192C3A;fill-rule:nonzero;fill-opacity:0.650980}
    .fil0 {fill:url(#id0);fill-rule:nonzero;fill-opacity:0.301961}
   ]]>
  </style>
  <linearGradient id="id0" gradientUnits="userSpaceOnUse" x1="283.356" y1="140.205" x2="283.356" y2="566.711">
   <stop offset="0" style="stop-opacity:1; stop-color:#192C3A"/>
   <stop offset="1" style="stop-opacity:1; stop-color:#192C3A"/>
  </linearGradient>
 </defs>
 <g id="Layer_x0020_1">
  <metadata id="CorelCorpID_0Corel-Layer"/>
  <path id="Shape" class="fil0" d="M283 567c157,0 284,-127 284,-284 0,-156 -127,-283 -284,-283 -156,0 -283,127 -283,283 0,157 127,284 283,284z"/>
  <g id="_2227050073728">
   <g>
    <path class="fil1" d="M184 63l201 1c10,0 19,9 19,19l-1 401c0,11 -9,19 -19,19l-201 0c-10,0 -19,-9 -19,-19l1 -401c0,-11 9,-20 19,-20z"/>
    <path class="fil2 str0" d="M184 63l201 1c10,0 19,9 19,19l-1 401c0,11 -9,19 -19,19l-201 0c-10,0 -19,-9 -19,-19l1 -401c0,-11 9,-20 19,-20z"/>
    <line id="Line" class="fil2 str1" x1="166" y1="453" x2="402" y2= "453" />
    <line id="Line_0" class="fil2 str1" x1="265" y1="82" x2="310" y2= "82" />
    <rect class="fil3" transform="matrix(0.698337 0.00681485 -0.00681485 0.698337 258.661 463.521)" width="72.9617" height="26.1564" rx="9" ry="9"/>
   </g>
   <g>
    <path id="Shape_1" class="fil4" d="M322 153l-73 0 0 73 73 0 0 -73 0 0zm-10 62l-52 0 0 -52 52 0 0 52 0 0z"/>
    <polygon id="Shape_2" class="fil4" points="400,361 390,361 390,382 479,382 479,372 400,372 "/>
    <rect id="Rectangle-path" class="fil4" x="270" y="174" width="31.2033" height="31.2033"/>
    <path id="Shape_3" class="fil4" d="M249 382l73 0 0 -73 -73 0 0 73 0 0zm11 -62l52 0 0 52 -52 0 0 -52 0 0z"/>
    <rect id="Rectangle-path_4" class="fil4" x="270" y="330" width="31.2033" height="31.2033"/>
    <path id="Shape_5" class="fil4" d="M406 153l0 73 73 0 0 -73 -73 0 0 0zm62 62l-52 0 0 -52 52 0 0 52 0 0z"/>
    <rect id="Rectangle-path_6" class="fil4" x="427" y="174" width="31.2033" height="31.2033"/>
    <rect id="Rectangle-path_7" class="fil4" x="458" y="236" width="20.8788" height="20.8788"/>
    <rect id="Rectangle-path_8" class="fil4" x="249" y="278" width="20.8788" height="20.8788"/>
    <polygon id="Shape_9" class="fil4" points="359,236 317,236 317,247 369,247 369,226 369,215 380,215 380,195 369,195 359,195 348,195 348,174 359,174 359,184 395,184 395,153 385,153 385,174 369,174 369,153 364,153 343,153 338,153 338,205 359,205 359,215 338,215 338,226 359,226 "/>
    <polygon id="Shape_10" class="fil4" points="265,268 286,268 296,268 301,268 301,278 280,278 280,288 301,288 301,299 343,299 343,288 312,288 312,278 312,257 296,257 296,241 286,241 286,257 275,257 275,236 249,236 249,247 265,247 "/>
    <polygon id="Shape_11" class="fil4" points="364,361 364,335 343,335 343,315 333,315 333,346 354,346 354,361 333,361 333,372 354,372 354,382 380,382 380,372 364,372 "/>
    <polygon id="Shape_12" class="fil4" points="416,257 395,257 395,231 385,231 385,268 437,268 437,257 427,257 427,247 442,247 442,236 427,236 416,236 406,236 406,247 416,247 "/>
    <polygon id="Shape_13" class="fil4" points="406,351 421,351 421,361 442,361 442,351 442,341 442,325 421,325 421,341 406,341 406,325 395,325 395,341 385,341 385,299 374,299 374,288 364,288 364,257 328,257 328,278 338,278 338,268 354,268 354,288 354,309 374,309 374,341 374,351 385,351 395,351 "/>
    <polygon id="Shape_14" class="fil4" points="468,283 453,283 442,283 416,283 416,304 406,304 406,283 395,283 395,315 427,315 427,294 442,294 442,309 453,309 453,294 468,294 468,325 453,325 453,356 479,356 479,346 463,346 463,335 479,335 479,294 479,283 479,268 468,268 "/>
   </g>
  </g>
 </g>
</svg>
