<?xml version="1.0" encoding="UTF-8"?>
<!DOCTYPE svg PUBLIC "-//W3C//DTD SVG 1.1//EN" "http://www.w3.org/Graphics/SVG/1.1/DTD/svg11.dtd">
<!-- Creator: CorelDRAW X7 -->
<svg xmlns="http://www.w3.org/2000/svg" xml:space="preserve" width="6.5352cm" height="6.5352cm" version="1.1" style="shape-rendering:geometricPrecision; text-rendering:geometricPrecision; image-rendering:optimizeQuality; fill-rule:evenodd; clip-rule:evenodd"
viewBox="0 0 744 744"
 xmlns:xlink="http://www.w3.org/1999/xlink">
 <defs>
  <style type="text/css">
   <![CDATA[
    .str0 {stroke:#707D89;stroke-width:6.02862}
    .str3 {stroke:#FFCC00;stroke-width:6.02862}
    .str2 {stroke:#FFCC00;stroke-width:6.02862}
    .str1 {stroke:#707D89;stroke-width:6.02862;stroke-linecap:square}
    .fil2 {fill:none;fill-rule:nonzero}
    .fil5 {fill:#707D89}
    .fil6 {fill:#999999}
    .fil4 {fill:#E46633;fill-rule:nonzero}
    .fil3 {fill:#E48B21;fill-rule:nonzero}
    .fil1 {fill:#192C3A;fill-rule:nonzero;fill-opacity:0.650980}
    .fil0 {fill:url(#id0);fill-rule:nonzero;fill-opacity:0.301961}
   ]]>
  </style>
  <linearGradient id="id0" gradientUnits="userSpaceOnUse" x1="372.244" y1="78.4701" x2="372.244" y2="744.487">
   <stop offset="0" style="stop-opacity:1; stop-color:#192C3A"/>
   <stop offset="1" style="stop-opacity:1; stop-color:#192C3A"/>
  </linearGradient>
 </defs>
 <g id="Layer_x0020_1">
  <metadata id="CorelCorpID_0Corel-Layer"/>
  <path id="Oval-2" class="fil0" d="M372 744c206,0 372,-166 372,-372 0,-205 -166,-372 -372,-372 -205,0 -372,167 -372,372 0,206 167,372 372,372z"/>
  <path class="fil1" d="M86 112l275 -81c14,-4 29,4 33,18l162 550c5,14 -4,29 -18,34l-274 80c-15,5 -30,-4 -34,-18l-162 -549c-4,-15 4,-30 18,-34z"/>
  <path class="fil2 str0" d="M86 112l275 -81c14,-4 29,4 33,18l162 550c5,14 -4,29 -18,34l-274 80c-15,5 -30,-4 -34,-18l-162 -549c-4,-15 4,-30 18,-34z"/>
  <line id="Line" class="fil2 str1" x1="219" y1="652" x2="543" y2= "557" />
  <line id="Line_0" class="fil2 str1" x1="204" y1="105" x2="265" y2= "87" />
  <path id="Shape" class="fil2 str2" d="M513 409l0 -60c0,-34 27,-61 61,-61l0 0c33,0 60,27 60,61l0 60"/>
  <g id="_2227170858064">
   <path class="fil3 str3" d="M466 409l215 0c8,0 13,6 13,13l0 187c0,7 -5,13 -13,13l-215 0c-7,0 -13,-6 -13,-13l0 -187c0,-7 6,-13 13,-13z"/>
   <g>
    <path id="Shape_1" class="fil4" d="M571 500l0 31 0 -31zm0 0l0 0 0 0z"/>
    <path id="1" class="fil2 str2" d="M571 500l0 31m0 -31l0 0 0 0z"/>
   </g>
  </g>
  <rect class="fil5" transform="matrix(0.729443 -0.209164 0.209164 0.729443 359.542 626.438)" width="95.8497" height="34.3616" rx="11" ry="11"/>
  <path class="fil6" d="M279 259c4,-1 7,-2 10,-3 3,0 6,-1 9,-1 3,0 6,0 10,0 3,0 6,0 9,0 3,1 6,1 9,2 3,1 6,1 9,2 2,1 5,2 8,4 3,1 6,2 8,4 3,1 5,3 8,4 2,2 5,4 7,6 2,2 5,4 7,6 2,2 4,4 6,7 2,2 4,5 5,7 2,3 4,5 5,8 2,3 3,6 4,9 1,3 2,6 3,9 1,3 2,6 2,9 1,3 1,7 2,10 0,3 0,6 0,9 0,3 0,6 -1,9 0,3 -1,6 -1,9 -1,3 -2,6 -3,9 0,3 -2,6 -3,8 -1,3 -2,6 -4,9 -1,2 -3,5 -4,7 -2,3 -4,5 -6,7 -2,3 -4,5 -6,7 -2,2 -4,4 -7,6 -2,2 -5,4 -7,6 -3,1 -6,3 -8,4 -3,2 -6,3 -9,4 -3,2 -6,3 -9,4 -3,1 -6,1 -9,2 -4,0 -7,1 -10,1 -3,0 -6,0 -9,0 -3,0 -6,0 -9,0 -3,-1 -6,-1 -9,-2 -3,0 -6,-1 -9,-2 -3,-1 -6,-2 -9,-3 -2,-2 -5,-3 -8,-4 -2,-2 -5,-3 -7,-5 -3,-2 -5,-4 -8,-6 -2,-1 -4,-4 -6,-6 -3,-2 -5,-4 -7,-7 -1,-2 -3,-4 -5,-7 -2,-3 -3,-5 -5,-8 -1,-3 -2,-6 -4,-9 -1,-3 -2,-6 -3,-9 -1,-3 -1,-6 -2,-9 -1,-3 -1,-6 -1,-9 -1,-4 -1,-7 -1,-10 1,-3 1,-6 1,-9 0,-3 1,-6 2,-9 0,-3 1,-6 2,-9 1,-3 2,-6 3,-8 1,-3 3,-6 4,-8 2,-3 3,-6 5,-8 2,-3 3,-5 5,-7 2,-3 4,-5 6,-7 3,-2 5,-4 7,-6 3,-2 5,-4 8,-6 2,-1 5,-3 8,-4 3,-2 5,-3 8,-4 3,-2 6,-3 9,-3zm5 16c-5,2 -9,4 -14,6 -4,2 -9,5 -12,8 -4,3 -8,7 -11,10 -3,4 -6,8 -8,12l25 -7 26 -7 25 -8 26 -7 -1 4 0 5 -1 5 -1 4 0 0 0 0 0 0 0 0 0 1 0 0 0 1 0 0 0 2 0 1 -1 2 0 1 0 0 0 0 0 0 0 0 0 4 -1 4 0 4 -1 3 -1 11 -2 10 -1 10 -2 11 -4 1 -5 2 -5 1 -5 1 2 -14 16 -10 1 -13 -15 11 1 -6 14 -10 2 -12 -15 10 1 -4 1 -4 0 0 0 0 0 0 0 0 0 -4 0 -3 1 -4 0 -3 -22 6 -21 6 -22 7 -22 6c-1,3 -2,7 -2,10 -1,4 -1,7 -1,10 0,4 0,7 1,11 0,3 1,7 2,10 3,11 8,20 14,27 6,8 14,15 23,19 8,5 18,8 28,9 10,1 20,1 30,-2 5,-2 10,-4 14,-6 5,-2 9,-5 13,-8 4,-3 7,-7 10,-10 3,-4 6,-8 9,-12l-26 7 -25 8 -26 7 -25 7 0 -4 1 -5 0 -4 1 -5 0 0 0 0 0 0 0 0 0 -1 0 0 0 -1 0 0 1 -1 0 -2 0 -1 0 -2 0 0 0 0 0 0 0 0 1 -4c1,-7 2,-14 3,-22l1 -10 2 -10 1 -11 5 -1 5 -1 4 -2 5 -1 -1 9 -15 9 -1 13 14 -10 0 6 -14 9 -2 12 14 -9 -3 17 0 4 -1 3 0 3 22 -6 22 -6 22 -7 22 -6c1,-3 1,-7 2,-10 0,-3 1,-7 0,-10 0,-4 0,-7 0,-11 -1,-3 -2,-7 -3,-10 -3,-10 -7,-20 -14,-27 -6,-8 -14,-14 -22,-19 -9,-5 -18,-8 -28,-9 -10,-1 -20,-1 -31,2z"/>
 </g>
</svg>
